<svg xmlns="http://www.w3.org/2000/svg" viewBox="0 0 512 512" id="agile"><path fill="#a79ba7" fill-rule="evenodd" d="M472.157 483.813h-81.761a8 8 0 0 1 0-16h81.761l-12.703-9.92a7.971 7.971 0 0 1 9.813-12.563l30.872 24.108a7.972 7.972 0 0 1 .119 12.656l-30.991 24.202a7.972 7.972 0 0 1-9.813-12.563l12.703-9.92zM123.492 421.67c-45.671-38.064-71.815-93.871-71.815-153.32 0-110.161 89.302-199.463 199.463-199.463s199.463 89.302 199.463 199.463-89.301 199.463-199.463 199.463H16.678a8 8 0 0 0 0 16H251.14c118.995 0 215.463-96.468 215.463-215.463S370.135 52.887 251.14 52.887 35.677 149.355 35.677 268.35c0 64.12 28.38 124.525 77.627 165.569a7.966 7.966 0 0 0 10.188-12.249z" clip-rule="evenodd"></path><path fill="#ffe177" fill-rule="evenodd" d="M278.74 152.728a118.316 118.316 0 0 1 34.639 14.361l22.509-9.997 26.529 26.528-9.994 22.502a118.313 118.313 0 0 1 14.363 34.649l22.965 8.839v37.517l-22.97 8.842a118.316 118.316 0 0 1-14.361 34.639l9.997 22.509-26.529 26.529-22.502-9.994a118.313 118.313 0 0 1-34.649 14.363l-8.839 22.965h-37.517l-8.842-22.97a118.304 118.304 0 0 1-34.639-14.361l-22.509 9.997-26.529-26.528 9.994-22.502a118.313 118.313 0 0 1-14.363-34.649l-22.965-8.839v-37.517l22.968-8.841a118.268 118.268 0 0 1 14.361-34.642l-9.995-22.507 26.528-26.529 22.509 9.997a118.31 118.31 0 0 1 34.64-14.361l8.842-22.97h37.517l8.842 22.97zm-27.6 44.492c-39.298 0-71.149 31.851-71.149 71.149s31.851 71.149 71.149 71.149 71.149-31.851 71.149-71.149-31.85-71.149-71.149-71.149z" clip-rule="evenodd"></path><path fill="#ffd064" fill-rule="evenodd" d="M278.74 152.728a118.316 118.316 0 0 1 34.639 14.361l22.509-9.997 26.529 26.529-9.994 22.502a118.313 118.313 0 0 1 14.363 34.649l22.964 8.839v37.518l-22.97 8.842a118.316 118.316 0 0 1-14.361 34.639l9.997 22.508-26.528 26.53-22.502-9.994a118.313 118.313 0 0 1-34.649 14.363l-8.839 22.965H251.14V339.52c39.298 0 71.149-31.851 71.149-71.149s-31.851-71.149-71.149-71.149V129.76h18.759l8.841 22.968z" clip-rule="evenodd"></path><g fill-rule="evenodd" clip-rule="evenodd"><path fill="#8ac9fe" d="M214.374 4.015h73.533c5.28 0 9.599 4.319 9.599 9.599v73.533c0 5.279-4.319 9.599-9.599 9.599h-73.533c-5.28 0-9.599-4.319-9.599-9.599V13.614c0-5.28 4.319-9.599 9.599-9.599z"></path><path fill="#60b7ff" d="M251.14 4.015h36.767c5.28 0 9.599 4.319 9.599 9.599v73.533c0 5.279-4.319 9.599-9.599 9.599H251.14V4.015z"></path><path fill="#eceff1" d="M225.924 54.135a8 8 0 1 1 11.313-11.313l9.834 9.834 17.412-21.525a8 8 0 0 1 12.437 10.063l-22.964 28.389a8 8 0 0 1-11.913.671l-16.119-16.119z"></path></g></svg>