<svg xmlns="http://www.w3.org/2000/svg" enable-background="new 0 0 50 50" viewBox="0 0 50 50" id="communication"><path d="M5.58013 30.68005c0-3.41003 2.72998-6.18005 6.08008-6.18005 3.34985 0 6.08008 2.77002 6.08008 6.18005 0 3.47998-2.72021 7.68994-6.08008 7.68994C8.29009 38.37 5.58013 34.16003 5.58013 30.68005zM22.21001 46.65002c.07007.45996.11011.90991.11011 1.34998 0 .54993-.44995 1-1 1H2.00005c-.5498 0-1-.45007-1-1 0-.44006.03003-.90002.1001-1.34998.64014-4.34009 4.43994-7.61011 8.84009-7.61011h3.42993C17.77007 39.03992 21.57012 42.30994 22.21001 46.65002zM32.26006 30.68005c0-3.41003 2.73022-6.18005 6.08008-6.18005 3.3501 0 6.08008 2.77002 6.08008 6.18005 0 3.47998-2.71021 7.68994-6.08008 7.68994S32.26006 34.16003 32.26006 30.68005zM49.00005 48c0 .54993-.44995 1-1 1H28.68023c-.55005 0-1-.45007-1-1 0-.44006.04004-.90002.10986-1.34998.63013-4.34009 4.43018-7.61011 8.84009-7.61011h3.41992c4.40015 0 8.19995 3.27002 8.84009 7.61011C48.96001 47.09998 49.00005 47.55994 49.00005 48z"></path><g><path d="M28.07012,3.34998V4.88h-6.59985c-2.39014,0-4.34009,1.94995-4.34009,4.34998v6.84998l-3.22998,2.6001
			c-0.31024,0.25846-0.7458,0.27728-1.06006,0.11987c-0.34009-0.15991-0.56006-0.51001-0.56006-0.8999v-3.11011H11.8001
			c-1.29004,0-2.34009-1.05994-2.34009-2.34985V3.34998C9.46001,2.04993,10.51006,1,11.8001,1h13.92993
			C27.02007,1,28.07012,2.04993,28.07012,3.34998z"></path></g><path d="M35.39019,6.88H21.47027c-1.29004,0-2.34009,1.05005-2.34009,2.34998v9.08997c0,1.29004,1.05005,2.3501,2.34009,2.3501h7
		l4.81983,3.88989c0.29799,0.24833,0.73663,0.27938,1.06006,0.13013c0.3501-0.17004,0.57007-0.52002,0.57007-0.91003v-3.10999
		h0.46997c1.30005,0,2.3501-1.06006,2.3501-2.3501V9.22998C37.74029,7.93005,36.69024,6.88,35.39019,6.88z M24.92046,14.82068
		H23.6021c-0.55273,0-1-0.44775-1-1s0.44727-1,1-1h1.31836c0.55273,0,1,0.44775,1,1S25.4732,14.82068,24.92046,14.82068z
		 M29.09331,14.82068h-1.31836c-0.55273,0-1-0.44775-1-1s0.44727-1,1-1h1.31836c0.55273,0,1,0.44775,1,1
		S29.64605,14.82068,29.09331,14.82068z M33.26519,14.82068h-1.31836c-0.55273,0-1-0.44775-1-1s0.44727-1,1-1h1.31836
		c0.55273,0,1,0.44775,1,1S33.81792,14.82068,33.26519,14.82068z"></path></svg>