<svg xmlns="http://www.w3.org/2000/svg" enable-background="new 0 0 128 128" viewBox="0 0 128 128" id="user-story"><polygon fill="#ff9c7a" points="60.072 9.877 63.952 11.998 60.072 14.118 57.95 17.995 55.828 14.118 51.949 11.998 55.828 9.877 57.95 6"></polygon><polygon fill="#ff9c7a" points="21.864 113.882 25.744 116.002 21.864 118.123 19.742 122 17.62 118.123 13.741 116.002 17.62 113.882 19.742 110.005"></polygon><g><path fill="#ff9c7a" d="M57.217,30.053C42.314,29.995,16.903,29.937,2,29.878v71.712h55.26
						C57.26,101.591,57.231,36.839,57.217,30.053z"></path><path fill="#fff" d="M40.979 83.055h-26.85c-1.104 0-2-.896-2-2s.896-2 2-2H40.98c1.104 0 2 .896 2 2S42.084 83.055 40.979 83.055zM40.979 72.566h-26.85c-1.104 0-2-.896-2-2s.896-2 2-2H40.98c1.104 0 2 .896 2 2S42.084 72.566 40.979 72.566zM48.248 93.102H38.021c-1.104 0-2-.896-2-2s.896-2 2-2h10.227c1.104 0 2 .896 2 2S49.352 93.102 48.248 93.102zM33.723 62.448H14.129c-1.104 0-2-.896-2-2s.896-2 2-2h19.594c1.104 0 2 .896 2 2S34.827 62.448 33.723 62.448z"></path><rect width="10.508" height="10.388" x="14.488" y="39.857" fill="#d94635"></rect><path fill="#d94635" d="M53.139,65.597l-6.625,1.156l-0.189-6.581C51.763,53.386,57.202,46.6,62.64,39.814
						c2.312,1.813,4.624,3.627,6.935,5.44C64.097,52.035,58.618,58.816,53.139,65.597z"></path><g><path fill="#1072b5" d="M91.947,115.612H80.095c-1.104,0-2-0.896-2-2V17.713c0-1.104,0.896-2,2-2h11.852c1.104,0,2,0.896,2,2
							s-0.896,2-2,2h-9.852v91.899h9.852c1.104,0,2,0.896,2,2S93.052,115.612,91.947,115.612z"></path><path fill="#1072b5" d="M91.947,66.694H70.013c-1.104,0-2-0.896-2-2s0.896-2,2-2h21.934c1.104,0,2,0.896,2,2
							C93.947,65.798,93.052,66.694,91.947,66.694z"></path><g><rect width="23.395" height="16.221" x="102.605" y="8.717" fill="#8bdfff"></rect><rect width="23.395" height="16.221" x="102.605" y="57.587" fill="#8bdfff"></rect><rect width="23.395" height="16.221" x="102.605" y="104.451" fill="#8bdfff"></rect></g></g></g></svg>