<svg xmlns="http://www.w3.org/2000/svg" viewBox="0 0 512 512" id="growth-risk"><path fill-rule="evenodd" d="M28.14 266.536h61.491c5.273 0 9.573 4.301 9.573 9.574v184.166c0 5.273-4.3 9.574-9.573 9.574H28.14c-5.273 0-9.574-4.3-9.574-9.574V276.109c0-5.273 4.301-9.573 9.574-9.573zm328.88 29.632 89.297 154.665c7.342 12.716 7.342 28.062 0 40.778C438.976 504.327 425.686 512 411.002 512H232.41c-14.683 0-27.973-7.673-35.314-20.389-7.342-12.716-7.342-28.062 0-40.778l89.296-154.665c7.341-12.716 20.631-20.389 35.314-20.389 14.683-.001 27.973 7.672 35.314 20.389zm-35.314 158.907c-7.553 0-13.676 6.123-13.676 13.676s6.123 13.675 13.676 13.675 13.676-6.122 13.676-13.675c0-7.552-6.123-13.676-13.676-13.676zm0-24.412c5.744 0 10.461-4.549 10.668-10.29l2.698-74.727c.108-3.005-.897-5.632-2.985-7.796-2.087-2.164-4.676-3.264-7.683-3.264h-5.397c-3.008 0-5.596 1.1-7.684 3.264-2.088 2.165-3.093 4.791-2.985 7.796l2.699 74.727c.207 5.741 4.925 10.29 10.669 10.29zM280.099 100.57l153.764-73.992-15.381-4.018c-6.092-1.592-9.794-7.872-8.214-13.971 1.58-6.102 7.878-9.814 13.98-8.22l45.204 11.81c.863.193 1.702.484 2.5.869 5.701 2.752 8.097 9.616 5.344 15.317l-20.493 42.443c-2.752 5.7-9.614 8.096-15.315 5.344-5.701-2.751-8.097-9.615-5.344-15.316l6.224-12.89-163.133 78.5c-4.736 2.279-10.242-.831-12.886-4.917l-26.413-40.82-192.248 79.644c-5.835 2.417-12.571-.404-14.971-6.241-2.398-5.834.413-12.544 6.235-14.956l201.052-83.293c5.092-2.11 10.965-.254 13.974 4.342 8.781 13.407 17.423 26.904 26.121 40.365zm142.27 2.97c-5.273 0-9.574 4.301-9.574 9.574v246.651l47.814 82.816c4.906 8.497 7.471 17.863 7.699 27.268h15.552c5.273 0 9.573-4.3 9.573-9.574V113.114c0-5.273-4.301-9.574-9.573-9.574h-61.491zm-131.41 54.332c-5.273 0-9.574 4.301-9.574 9.574v108.389c10.568-10.507 24.929-16.56 40.32-16.56 15.39 0 29.75 6.052 40.318 16.557V167.446c0-5.273-4.3-9.574-9.573-9.574h-61.491zM159.55 212.204c-5.273 0-9.574 4.3-9.574 9.574v238.498c0 5.273 4.301 9.574 9.574 9.574h15.554c.227-9.406 2.792-18.771 7.699-27.268l47.812-82.813v-137.99c0-5.274-4.301-9.574-9.574-9.574l-61.491-.001z" clip-rule="evenodd"></path></svg>