<svg xmlns="http://www.w3.org/2000/svg" viewBox="0 0 512 512" id="omnichannel"><path fill="#a79ba7" fill-rule="evenodd" d="M79.376 321.522a7.735 7.735 0 1 1-4.783-14.713l84.488-27.452a7.736 7.736 0 0 1 4.783 14.713l-84.488 27.452zm-4.783-116.331a7.735 7.735 0 1 1 4.783-14.713l84.488 27.452a7.736 7.736 0 0 1-4.783 14.713l-84.488-27.452zm64.503-96.93a7.739 7.739 0 1 1 12.533-9.081l52.216 71.87a7.739 7.739 0 1 1-12.533 9.081l-52.216-71.87zM248.25 67.772a7.75 7.75 0 0 1 15.5 0v88.836a7.75 7.75 0 0 1-15.5 0V67.772zM360.371 99.18a7.738 7.738 0 1 1 12.533 9.081l-52.216 71.87a7.74 7.74 0 0 1-12.533-9.081l52.216-71.87zm72.253 91.298a7.735 7.735 0 1 1 4.783 14.713l-84.488 27.452a7.736 7.736 0 0 1-4.783-14.713l84.488-27.452zm4.783 116.331a7.735 7.735 0 1 1-4.783 14.713l-84.488-27.452a7.736 7.736 0 0 1 4.783-14.713l84.488 27.452zm-64.503 96.93a7.739 7.739 0 0 1-12.533 9.082l-52.216-71.87a7.739 7.739 0 1 1 12.533-9.081l52.216 71.869zM263.75 444.228a7.75 7.75 0 0 1-15.5 0v-88.836a7.75 7.75 0 0 1 15.5 0v88.836zM151.629 412.82a7.74 7.74 0 0 1-12.533-9.082l52.216-71.87a7.738 7.738 0 1 1 12.533 9.081l-52.216 71.871z" clip-rule="evenodd"></path><path fill="#ffe177" fill-rule="evenodd" d="M256 8c9.331 0 17.78 3.783 23.896 9.899s9.899 14.565 9.899 23.896-3.783 17.78-9.899 23.896S265.331 75.59 256 75.59c-9.331 0-17.781-3.783-23.896-9.899-6.116-6.115-9.899-14.564-9.899-23.896 0-9.331 3.783-17.78 9.899-23.896S246.669 8 256 8z" clip-rule="evenodd"></path><path fill="#ffd064" fill-rule="evenodd" d="M256 8c9.331 0 17.78 3.783 23.896 9.899s9.899 14.565 9.899 23.896-3.783 17.78-9.899 23.896S265.331 75.59 256 75.59c-1.582 0-3.139-.109-4.664-.319a33.703 33.703 0 0 0 19.234-9.579c6.115-6.116 9.899-14.565 9.899-23.896s-3.783-17.78-9.899-23.896a33.703 33.703 0 0 0-19.233-9.579A33.834 33.834 0 0 1 256 8z" clip-rule="evenodd"></path><path fill="#ffe177" fill-rule="evenodd" d="M381.907 48.909c9.331 0 17.78 3.783 23.896 9.899s9.899 14.565 9.899 23.896c0 9.331-3.783 17.78-9.899 23.896-6.116 6.115-14.565 9.899-23.896 9.899-9.331 0-17.781-3.783-23.896-9.899-6.116-6.116-9.899-14.564-9.899-23.896 0-9.331 3.783-17.78 9.899-23.896 6.115-6.115 14.565-9.899 23.896-9.899z" clip-rule="evenodd"></path><path fill="#ffd064" fill-rule="evenodd" d="M381.907 48.909c9.331 0 17.78 3.783 23.896 9.899s9.899 14.565 9.899 23.896c0 9.331-3.783 17.78-9.899 23.896-6.116 6.115-14.565 9.899-23.896 9.899-1.582 0-3.139-.109-4.664-.32a33.706 33.706 0 0 0 19.234-9.579c6.115-6.116 9.899-14.565 9.899-23.896 0-9.331-3.783-17.78-9.899-23.896a33.706 33.706 0 0 0-19.233-9.579 33.991 33.991 0 0 1 4.663-.32z" clip-rule="evenodd"></path><path fill="#ffe177" fill-rule="evenodd" d="M459.721 156.012c9.331 0 17.78 3.783 23.896 9.899s9.899 14.565 9.899 23.896c0 9.331-3.783 17.78-9.899 23.896-6.116 6.115-14.565 9.899-23.896 9.899-9.331 0-17.781-3.783-23.896-9.899-6.116-6.115-9.899-14.564-9.899-23.896 0-9.331 3.783-17.78 9.899-23.896s14.565-9.899 23.896-9.899z" clip-rule="evenodd"></path><path fill="#ffd064" fill-rule="evenodd" d="M459.721 156.012c9.331 0 17.78 3.783 23.896 9.899s9.899 14.565 9.899 23.896c0 9.331-3.783 17.78-9.899 23.896-6.116 6.115-14.565 9.899-23.896 9.899-1.582 0-3.139-.109-4.664-.32a33.712 33.712 0 0 0 19.234-9.579c6.115-6.116 9.899-14.565 9.899-23.896 0-9.331-3.783-17.78-9.899-23.896a33.706 33.706 0 0 0-19.233-9.579 33.991 33.991 0 0 1 4.663-.32z" clip-rule="evenodd"></path><path fill="#ffe177" fill-rule="evenodd" d="M459.721 288.398c9.331 0 17.78 3.783 23.896 9.899s9.899 14.565 9.899 23.896c0 9.332-3.783 17.78-9.899 23.897-6.116 6.116-14.565 9.899-23.896 9.899-9.331 0-17.781-3.783-23.896-9.899-6.116-6.116-9.899-14.564-9.899-23.896 0-9.331 3.783-17.78 9.899-23.896 6.116-6.117 14.565-9.9 23.896-9.9z" clip-rule="evenodd"></path><path fill="#ffd064" fill-rule="evenodd" d="M459.721 288.398c9.331 0 17.78 3.783 23.896 9.899s9.899 14.565 9.899 23.896c0 9.332-3.783 17.78-9.899 23.897-6.116 6.116-14.565 9.899-23.896 9.899-1.582 0-3.139-.109-4.664-.319a33.706 33.706 0 0 0 19.234-9.579c6.115-6.116 9.899-14.565 9.899-23.897 0-9.331-3.783-17.78-9.899-23.896a33.713 33.713 0 0 0-19.233-9.579 33.834 33.834 0 0 1 4.663-.321z" clip-rule="evenodd"></path><path fill="#ffe177" fill-rule="evenodd" d="M381.907 395.5c9.331 0 17.78 3.783 23.896 9.899s9.899 14.565 9.899 23.896c0 9.331-3.783 17.78-9.899 23.896-6.116 6.115-14.565 9.899-23.896 9.899-9.331 0-17.781-3.783-23.896-9.899-6.116-6.115-9.899-14.564-9.899-23.896 0-9.331 3.783-17.78 9.899-23.896 6.115-6.115 14.565-9.899 23.896-9.899z" clip-rule="evenodd"></path><path fill="#ffd064" fill-rule="evenodd" d="M381.907 395.5c9.331 0 17.78 3.783 23.896 9.899s9.899 14.565 9.899 23.896c0 9.331-3.783 17.78-9.899 23.896-6.116 6.115-14.565 9.899-23.896 9.899-1.582 0-3.139-.109-4.664-.32a33.706 33.706 0 0 0 19.234-9.579c6.115-6.116 9.899-14.565 9.899-23.896 0-9.331-3.783-17.78-9.899-23.896a33.706 33.706 0 0 0-19.233-9.579 33.991 33.991 0 0 1 4.663-.32z" clip-rule="evenodd"></path><path fill="#ffe177" fill-rule="evenodd" d="M256 436.41c9.331 0 17.78 3.783 23.896 9.899s9.899 14.565 9.899 23.896c0 9.332-3.783 17.78-9.899 23.896S265.332 504 256 504c-9.331 0-17.781-3.783-23.896-9.899-6.116-6.116-9.899-14.564-9.899-23.896 0-9.331 3.783-17.78 9.899-23.896s14.565-9.899 23.896-9.899z" clip-rule="evenodd"></path><path fill="#ffd064" fill-rule="evenodd" d="M256 436.41c9.331 0 17.78 3.783 23.896 9.899s9.899 14.565 9.899 23.896c0 9.332-3.783 17.78-9.899 23.896S265.332 504 256 504c-1.582 0-3.139-.109-4.664-.319a33.712 33.712 0 0 0 19.234-9.579c6.116-6.116 9.899-14.565 9.899-23.896 0-9.331-3.783-17.78-9.899-23.896a33.703 33.703 0 0 0-19.233-9.579 33.844 33.844 0 0 1 4.663-.321z" clip-rule="evenodd"></path><g fill-rule="evenodd" clip-rule="evenodd"><path fill="#ffe177" d="M130.094 395.501c9.331 0 17.78 3.783 23.896 9.899 6.115 6.116 9.899 14.565 9.899 23.896 0 9.331-3.783 17.78-9.899 23.896-6.116 6.115-14.565 9.899-23.896 9.899-9.331 0-17.781-3.783-23.896-9.899-6.116-6.115-9.899-14.564-9.899-23.896 0-9.331 3.783-17.78 9.899-23.896 6.115-6.116 14.565-9.899 23.896-9.899z"></path><path fill="#ffd064" d="M130.094 395.501c9.331 0 17.78 3.783 23.896 9.899 6.115 6.116 9.899 14.565 9.899 23.896 0 9.331-3.783 17.78-9.899 23.896-6.116 6.115-14.565 9.899-23.896 9.899-1.582 0-3.139-.109-4.664-.32a33.706 33.706 0 0 0 19.234-9.579c6.115-6.116 9.899-14.565 9.899-23.896 0-9.331-3.783-17.78-9.899-23.896a33.703 33.703 0 0 0-19.233-9.579 33.991 33.991 0 0 1 4.663-.32z"></path></g><g fill-rule="evenodd" clip-rule="evenodd"><path fill="#ffe177" d="M52.279 288.398c9.331 0 17.78 3.783 23.896 9.899 6.115 6.116 9.899 14.565 9.899 23.896 0 9.332-3.783 17.78-9.899 23.896s-14.565 9.899-23.896 9.899c-9.331 0-17.781-3.783-23.896-9.899-6.116-6.116-9.899-14.564-9.899-23.896 0-9.331 3.783-17.78 9.899-23.896s14.565-9.899 23.896-9.899z"></path><path fill="#ffd064" d="M52.279 288.398c9.331 0 17.78 3.783 23.896 9.899 6.115 6.116 9.899 14.565 9.899 23.896 0 9.332-3.783 17.78-9.899 23.896s-14.565 9.899-23.896 9.899c-1.582 0-3.139-.109-4.664-.319a33.712 33.712 0 0 0 19.234-9.579c6.116-6.116 9.899-14.565 9.899-23.896 0-9.331-3.783-17.78-9.899-23.896a33.703 33.703 0 0 0-19.233-9.579 33.834 33.834 0 0 1 4.663-.321z"></path></g><g fill-rule="evenodd" clip-rule="evenodd"><path fill="#ffe177" d="M52.279 156.012c9.331 0 17.78 3.783 23.896 9.899 6.115 6.116 9.899 14.565 9.899 23.896 0 9.331-3.783 17.78-9.899 23.896-6.116 6.115-14.565 9.899-23.896 9.899-9.331 0-17.781-3.783-23.896-9.899-6.116-6.115-9.899-14.564-9.899-23.896 0-9.331 3.783-17.78 9.899-23.896s14.565-9.899 23.896-9.899z"></path><path fill="#ffd064" d="M52.279 156.012c9.331 0 17.78 3.783 23.896 9.899 6.115 6.116 9.899 14.565 9.899 23.896 0 9.331-3.783 17.78-9.899 23.896-6.116 6.115-14.565 9.899-23.896 9.899-1.582 0-3.139-.109-4.664-.32a33.712 33.712 0 0 0 19.234-9.579c6.116-6.116 9.899-14.565 9.899-23.896 0-9.331-3.783-17.78-9.899-23.896a33.703 33.703 0 0 0-19.233-9.579 33.991 33.991 0 0 1 4.663-.32z"></path></g><g fill-rule="evenodd" clip-rule="evenodd"><path fill="#ffe177" d="M130.094 48.91c9.331 0 17.78 3.783 23.896 9.899s9.899 14.565 9.899 23.896-3.783 17.78-9.899 23.896c-6.116 6.115-14.565 9.899-23.896 9.899-9.331 0-17.781-3.783-23.896-9.899-6.116-6.116-9.899-14.564-9.899-23.896 0-9.331 3.783-17.78 9.899-23.896 6.115-6.116 14.565-9.899 23.896-9.899z"></path><path fill="#ffd064" d="M130.094 48.91c9.331 0 17.78 3.783 23.896 9.899s9.899 14.565 9.899 23.896-3.783 17.78-9.899 23.896c-6.116 6.115-14.565 9.899-23.896 9.899-1.582 0-3.139-.109-4.664-.32a33.706 33.706 0 0 0 19.234-9.579c6.116-6.116 9.899-14.565 9.899-23.896s-3.783-17.78-9.899-23.896a33.703 33.703 0 0 0-19.233-9.579 33.991 33.991 0 0 1 4.663-.32z"></path></g><g fill-rule="evenodd" clip-rule="evenodd"><circle cx="256" cy="256" r="130.709" fill="#837683"></circle><path fill="#685e68" d="M256 125.291a132.2 132.2 0 0 0-9.688.358C313.976 130.607 367.333 187.07 367.333 256s-53.357 125.394-121.021 130.351a132.2 132.2 0 0 0 9.688.358c72.189 0 130.709-58.52 130.709-130.709S328.189 125.291 256 125.291z"></path><path fill="#80b4fb" d="M256 268.605c-47.085 0-85.849 35.677-90.758 81.458 23.51 22.689 55.504 36.646 90.758 36.645 6.351 0 12.596-.453 18.706-1.329 27.799-3.985 52.772-16.719 72.047-35.32-4.903-45.79-43.661-81.454-90.753-81.454z"></path><path fill="#61a2f9" d="M244.383 269.338c54.333 6.904 76.229 48.016 81.263 97.285a131.372 131.372 0 0 0 21.106-16.563c-4.901-45.791-43.659-81.455-90.751-81.455-3.936 0-7.813.249-11.618.733z"></path><circle cx="256.001" cy="215.555" r="46.15" fill="#f6dccd"></circle><path fill="#f1cbbc" d="M290.532 215.555c0 23.52-17.595 42.931-40.34 45.788 1.903.239 3.842.362 5.809.362 25.488 0 46.15-20.662 46.15-46.15s-20.662-46.15-46.15-46.15c-1.967 0-3.907.123-5.809.362 22.745 2.857 40.34 22.268 40.34 45.788z"></path></g></svg>